<svg xmlns="http://www.w3.org/2000/svg" fill="none" viewBox="0 0 96 96" id="Jira--Streamline-Svg-Logos" height="24" width="24"><desc>Jira Streamline Icon: https://streamlinehq.com</desc><path fill="#2684ff" d="M91.0732 1H45.8076c0 5.41934 2.1528 10.6167 5.9849 14.4488 3.832 3.832 9.0294 5.9848 14.4488 5.9848h8.3384v8.0505c.0072 11.2749 9.1455 20.4133 20.4205 20.4205V4.92703C95.0002 2.75819 93.242 1 91.0732 1Z"></path><path fill="url(#a)" d="M68.6762 23.5541H23.4106c.0073 11.2749 9.1456 20.4133 20.4206 20.4205h8.3384v8.0766c.0144 11.275 9.1587 20.4075 20.4336 20.4075V27.4811c0-2.1688-1.7582-3.927-3.927-3.927Z"></path><path fill="url(#b)" d="M46.2656 46.0953H1C1 57.3805 10.1485 66.529 21.4336 66.529h8.3646v8.0504c.0072 11.2647 9.1296 20.3989 20.3944 20.4205V50.0224c0-2.1689-1.7582-3.9271-3.927-3.9271Z"></path><defs><linearGradient id="a" x1="4845.8" x2="2931.97" y1="31.408" y2="2028.41" gradientUnits="userSpaceOnUse"><stop offset=".18" stop-color="#0052cc"></stop><stop offset="1" stop-color="#2684ff"></stop></linearGradient><linearGradient id="b" x1="4952.98" x2="2739.14" y1="68.348" y2="2246.45" gradientUnits="userSpaceOnUse"><stop offset=".18" stop-color="#0052cc"></stop><stop offset="1" stop-color="#2684ff"></stop></linearGradient></defs></svg>